Coordinates
version=1
nRows=14
nColumns=63
inDegrees=yes

Units are S.I. units (second, meters, Newtons, ...)
If the header above contains a line with 'inDegrees', this indicates whether rotational values are in degrees (yes) or radians (no).

endheader
time	pelvis_tilt	pelvis_list	pelvis_rotation	pelvis_tx	pelvis_ty	pelvis_tz	hip_flexion_r	hip_adduction_r	hip_rotation_r	knee_angle_r	knee_angle_r_beta	ankle_angle_r	subtalar_angle_r	mtp_angle_r	hip_flexion_l	hip_adduction_l	hip_rotation_l	knee_angle_l	knee_angle_l_beta	ankle_angle_l	subtalar_angle_l	mtp_angle_l	L5_S1_Flex_Ext	L5_S1_Lat_Bending	L5_S1_axial_rotation	L4_L5_Flex_Ext	L4_L5_Lat_Bending	L4_L5_axial_rotation	L3_L4_Flex_Ext	L3_L4_Lat_Bending	L3_L4_axial_rotation	L2_L3_Flex_Ext	L2_L3_Lat_Bending	L2_L3_axial_rotation	L1_L2_Flex_Ext	L1_L2_Lat_Bending	L1_L2_axial_rotation	L1_T12_Flex_Ext	L1_T12_Lat_Bending	L1_T12_axial_rotation	Abs_r3	Abs_r2	Abs_r1	Abs_t1	Abs_t2	neck_flexion	neck_bending	neck_rotation	arm_flex_r	arm_add_r	arm_rot_r	elbow_flex_r	pro_sup_r	wrist_flex_r	wrist_dev_r	arm_flex_l	arm_add_l	arm_rot_l	elbow_flex_l	pro_sup_l	wrist_flex_l	wrist_dev_l
0.762712	7.390732	-3.522526	89.653178	0.140376	0.626948	0.817190	-7.865148	5.789386	30.431155	1.669841	0.029144	21.200975	-16.687688	0.000000	-6.275588	-8.711017	-20.405468	9.477477	0.165413	36.480383	9.422526	0.000000	-0.028035	0.486468	-2.906746	-0.052063	0.647002	-3.088417	-0.046058	1.182798	-3.088417	-0.032041	1.182798	-2.543403	-0.026033	0.992005	-2.361731	-0.016019	0.753539	-2.180059	-0.200249	5.503021	-16.166448	0.000000	0.000000	17.665288	-0.966698	17.182113	-0.295801	-43.838689	-110.529371	83.352399	82.050471	-11.490996	-4.460629	0.950098	-9.666271	133.804628	6.198875	8.517984	-9.811490	-10.090689
0.779661	7.003993	-3.251785	89.707845	0.140133	0.626910	0.817716	-8.138003	5.356852	30.555743	1.473586	0.025719	21.585386	-16.643451	0.000000	-6.295622	-8.417130	-20.911158	9.904573	0.172867	36.546735	9.858638	0.000000	-0.032006	0.382752	-2.529989	-0.059438	0.509060	-2.688113	-0.052582	0.930623	-2.688113	-0.036579	0.930623	-2.213740	-0.029720	0.780507	-2.055616	-0.018288	0.592882	-1.897491	-0.228613	4.329764	-14.071037	0.000000	0.000000	17.766557	-0.385332	14.801270	0.143949	-44.841141	-111.040928	85.211590	80.054678	-17.407847	-2.452400	0.830592	-10.844459	129.233629	7.545067	13.064568	-9.925232	-9.649574
0.796610	6.652525	-3.063161	89.793408	0.139697	0.626698	0.818369	-8.327635	4.961271	30.611650	1.294792	0.022598	21.926741	-16.579759	0.000000	-6.259471	-8.145424	-21.427035	10.264935	0.179157	36.605757	10.321221	0.000000	-0.035312	0.284158	-2.121682	-0.065577	0.377930	-2.254288	-0.058014	0.690902	-2.254288	-0.040358	0.690902	-1.856472	-0.032790	0.579455	-1.723867	-0.020177	0.440161	-1.591262	-0.252228	3.214453	-11.800161	0.000000	0.000000	18.203129	0.112436	12.472715	0.958101	-46.091396	-111.469708	86.472616	78.301115	-23.733934	-0.848248	0.947525	-11.671158	129.266874	7.870752	13.727866	-9.736506	-9.861856
0.813559	6.320307	-2.953235	89.944689	0.139117	0.626311	0.819123	-8.439201	4.595002	30.562333	1.139128	0.019882	22.231317	-16.504473	0.000000	-6.170757	-7.881099	-21.871904	10.539563	0.183950	36.648419	10.766888	0.000000	-0.037766	0.185388	-1.674810	-0.070136	0.246566	-1.779486	-0.062046	0.450752	-1.779486	-0.043163	0.450752	-1.465459	-0.035070	0.378043	-1.360783	-0.021580	0.287166	-1.256108	-0.269761	2.097144	-9.314793	0.000000	0.000000	18.937600	0.442769	10.013269	2.233777	-47.528589	-111.840249	87.083749	76.745593	-30.125856	-0.009143	1.200189	-12.446774	130.128243	7.931452	13.961816	-9.636723	-10.255788
0.830508	6.009982	-2.936524	90.159251	0.138398	0.625779	0.819972	-8.453168	4.264087	30.397721	1.025118	0.017892	22.496705	-16.416912	0.000000	-6.017498	-7.621582	-22.209679	10.721153	0.187119	36.670605	11.159314	0.000000	-0.037577	0.085712	-1.190671	-0.069784	0.113998	-1.265088	-0.061735	0.208401	-1.265088	-0.042947	0.208401	-1.041837	-0.034894	0.174785	-0.967421	-0.021472	0.132769	-0.893004	-0.268409	0.969596	-6.622157	0.000000	0.000000	19.918263	0.632145	7.396846	4.147533	-49.032044	-112.142777	87.031724	75.777767	-36.381877	-0.111130	1.581708	-13.152880	131.748428	7.719711	13.792658	-9.599132	-10.817222
0.847458	5.717618	-3.013662	90.453607	0.137533	0.625139	0.820903	-8.369674	3.965853	30.093534	0.953969	0.016650	22.724993	-16.314072	0.000000	-5.801696	-7.360332	-22.428222	10.793169	0.188376	36.671665	11.533532	0.000000	-0.033035	-0.015831	-0.684810	-0.061349	-0.021055	-0.727610	-0.054273	-0.038491	-0.727610	-0.037756	-0.038491	-0.599208	-0.030676	-0.032282	-0.556408	-0.018876	-0.024522	-0.513607	-0.235965	-0.179080	-3.808705	0.000000	0.000000	21.075711	0.715717	4.645626	6.796128	-50.418987	-112.136442	86.286535	75.348731	-42.570983	-1.288489	2.058268	-13.774885	134.002432	7.248519	13.261135	-9.645491	-11.490989
0.864407	5.449285	-3.178371	90.826921	0.136539	0.624418	0.821889	-8.196400	3.705940	29.661088	0.926111	0.016164	22.916934	-16.205042	0.000000	-5.531935	-7.103769	-22.547419	10.750220	0.187627	36.657956	11.934139	0.000000	-0.022984	-0.117965	-0.173647	-0.042684	-0.156894	-0.184500	-0.037761	-0.286820	-0.184500	-0.026269	-0.286820	-0.151941	-0.021343	-0.240555	-0.141088	-0.013133	-0.182728	-0.130235	-0.164174	-1.334445	-0.965774	0.000000	0.000000	22.337913	0.709767	1.815335	10.211724	-51.558917	-111.431784	84.892077	75.388404	-48.917444	-3.074185	2.588510	-14.300492	136.754976	6.560739	12.460695	-9.892489	-12.168990
0.881356	5.201539	-3.415920	91.297778	0.135417	0.623635	0.822908	-7.953209	3.480792	29.096121	0.931705	0.016261	23.066790	-16.106986	0.000000	-5.222161	-6.847876	-22.550026	10.586662	0.184772	36.624960	12.379368	0.000000	-0.007237	-0.220025	0.321934	-0.013440	-0.292634	0.342055	-0.011889	-0.534969	0.342055	-0.008271	-0.534969	0.281692	-0.006720	-0.448675	0.261571	-0.004135	-0.340819	0.241450	-0.051692	-2.488969	1.790498	0.000000	0.000000	23.628516	0.605018	-1.049282	14.354515	-52.402463	-109.551813	83.043797	75.885216	-55.699296	-4.564166	3.095114	-14.733276	138.947829	5.737486	12.189359	-10.451975	-12.806979
0.898305	4.979929	-3.711235	91.878965	0.134181	0.622807	0.823936	-7.660938	3.295194	28.404089	0.957714	0.016715	23.173185	-16.025709	0.000000	-4.878209	-6.610120	-22.513370	10.326579	0.180233	36.599731	12.993253	0.000000	0.014062	-0.318907	0.780644	0.026114	-0.424146	0.829434	0.023102	-0.775390	0.829434	0.016071	-0.775390	0.683063	0.013058	-0.650315	0.634273	0.008035	-0.493987	0.585483	0.100442	-3.607539	4.341707	0.000000	0.000000	24.869312	0.380413	-3.832447	19.104876	-52.911863	-106.477682	81.003331	76.844533	-61.669617	-4.959601	3.525209	-15.072732	140.503004	4.844988	12.007962	-11.293586	-13.510310
0.915254	4.780440	-4.045916	92.580797	0.132849	0.621959	0.824961	-7.340983	3.146154	27.582891	0.992353	0.017320	23.241312	-15.962176	0.000000	-4.512422	-6.386174	-22.346280	9.979145	0.174169	36.562842	13.671301	0.000000	0.040645	-0.412838	1.190846	0.075481	-0.549074	1.265274	0.066775	-1.003774	1.265274	0.046453	-1.003774	1.041990	0.037743	-0.841859	0.967562	0.023224	-0.639486	0.893134	0.290320	-4.670103	6.623126	0.000000	0.000000	25.995544	0.027283	-6.447954	24.498833	-53.168880	-101.838035	78.613435	78.212211	-66.218627	-4.850067	3.826415	-15.335167	140.242546	4.021554	12.714423	-12.404090	-14.351312
0.932203	4.593819	-4.409817	93.399351	0.131451	0.621113	0.825969	-7.002348	3.023338	26.639169	1.029451	0.017967	23.299792	-15.906397	0.000000	-4.123386	-6.168879	-22.012377	9.575445	0.167123	36.511868	14.353536	0.000000	0.072956	-0.500412	1.545946	0.135487	-0.665548	1.642568	0.119860	-1.216702	1.642568	0.083382	-1.216702	1.352703	0.067747	-1.020440	1.256081	0.041687	-0.775138	1.159460	0.521121	-5.660762	8.598089	0.000000	0.000000	26.950885	-0.434313	-8.755083	30.698963	-53.175955	-95.387068	75.756735	79.923725	-68.612435	-4.594800	3.996169	-15.524526	138.439219	3.301008	14.019918	-13.581765	-15.269170
0.949153	4.419998	-4.795139	94.334701	0.130003	0.620304	0.826952	-6.650306	2.926353	25.592214	1.060656	0.018512	23.359062	-15.873938	0.000000	-3.705706	-5.958550	-21.458462	9.142703	0.159570	36.435686	14.951873	0.000000	0.111128	-0.581644	1.845782	0.206376	-0.773586	1.961144	0.182572	-1.414208	1.961144	0.127008	-1.414208	1.615059	0.103193	-1.186088	1.499698	0.063499	-0.900966	1.384337	0.793776	-6.579670	10.265687	0.000000	0.000000	27.698131	-0.982539	-10.801894	37.669348	-52.905117	-87.041695	72.441965	81.890097	-68.882258	-4.656973	4.041693	-15.679053	135.145734	2.782156	15.977775	-14.775035	-16.178042
0.966102	4.264211	-5.175355	95.371446	0.128551	0.619587	0.827961	-6.300854	2.860690	24.480057	1.084154	0.018922	23.410997	-15.896314	0.000000	-3.268951	-5.767612	-20.727703	8.716872	0.152138	36.340911	15.479706	0.000000	0.151675	-0.655365	2.090289	0.281676	-0.871635	2.220932	0.249188	-1.593453	2.220932	0.173350	-1.593453	1.829003	0.140846	-1.336419	1.698360	0.086667	-1.015160	1.567717	1.083402	-7.413615	11.625560	0.000000	0.000000	28.197981	-1.558195	-12.594668	45.299787	-52.242214	-77.050126	68.871456	84.110643	-66.808566	-4.815939	3.962909	-15.838077	129.332210	2.625152	19.978605	-15.982416	-16.889350
0.983051	4.127528	-5.548502	96.496249	0.127114	0.618990	0.829005	-5.953561	2.820100	23.256300	1.098538	0.019173	23.500711	-15.878034	0.000000	-2.802589	-5.593283	-19.791799	8.334102	0.145458	36.229818	15.858595	0.000000	0.193294	-0.721254	2.279215	0.358966	-0.959268	2.421666	0.317563	-1.753657	2.421666	0.220916	-1.753657	1.994313	0.179493	-1.470781	1.851862	0.110448	-1.117222	1.709411	1.380679	-8.158968	12.676311	0.000000	0.000000	28.442810	-2.074989	-14.157655	53.227238	-51.073732	-65.994835	65.311850	86.048538	-61.761032	-4.467279	3.868705	-15.975509	123.653370	2.697469	23.666142	-16.875694	-17.341507
